<?xml version="1.0" encoding="utf-8"?>
<!-- Generator: Adobe Illustrator 16.0.0, SVG Export Plug-In . SVG Version: 6.00 Build 0)  -->
<!DOCTYPE svg PUBLIC "-//W3C//DTD SVG 1.1//EN" "http://www.w3.org/Graphics/SVG/1.1/DTD/svg11.dtd">
<svg version="1.1" id="Layer_1" xmlns="http://www.w3.org/2000/svg" xmlns:xlink="http://www.w3.org/1999/xlink" x="0px" y="0px"
	 width="280px" height="280px" viewBox="-40 -40 280 280" enable-background="new -40 -40 280 280" xml:space="preserve">
<symbol  id="Alarm" viewBox="-31.929 -32.053 63.857 64.106">
	<path d="M31.928,20.25c-0.039,6.559-5.388,11.842-11.945,11.803c-3.681-0.021-6.96-1.717-9.123-4.359l16.817-16.619
		C30.293,13.27,31.949,16.568,31.928,20.25z"/>
	<path d="M-27.721,10.881l16.633,16.832c-2.193,2.527-5.429,4.123-9.037,4.102c-6.559-0.039-11.843-5.387-11.804-11.945
		C-31.907,16.26-30.273,13.045-27.721,10.881z"/>
	<path d="M4.067,14.807c0,1.381-1.12,2.502-2.501,2.502s-2.499-1.121-2.499-2.502V-1.275l-9.407,4.645
		c-1.733,0.855-3.832,0.145-4.688-1.59c-0.856-1.732-0.146-3.832,1.588-4.688l12.785-6.309C-0.155-9.463,0.373-9.58,0.894-9.58
		c1.29,0,2.531,0.715,3.14,1.951c0.483,0.979,0.452,2.068,0.034,2.99V14.807z"/>
	<path d="M24.4-18.818c2.977,4.588,4.698,10.062,4.663,15.939C28.968,13.076,16.003,25.947,0.068,25.947c-0.059,0-0.118,0-0.177,0
		c-16.016-0.096-28.923-13.158-28.827-29.172c0.036-6.131,1.978-11.801,5.251-16.465l-5.996-6.068
		c-0.776-0.787-0.77-2.051,0.015-2.828c0.392-0.385,0.9-0.576,1.408-0.576c0.516,0,1.031,0.197,1.422,0.592l5.684,5.754
		c5.297-5.682,12.843-9.236,21.212-9.236c0.059,0,0.118,0.002,0.177,0.002C8.925-32,16.692-28.127,21.972-22.043l6.201-6.127
		c0.389-0.385,0.896-0.578,1.404-0.578c0.516,0,1.031,0.199,1.423,0.594c0.778,0.785,0.77,2.055-0.016,2.83L24.4-18.818z
		 M0.21-27.051l-0.15-0.002c-13.153,0-23.917,10.703-23.995,23.857c-0.038,6.41,2.422,12.451,6.929,17.012
		c4.506,4.559,10.518,7.092,16.925,7.131h0.15c0.001,0,0,0,0.001,0c13.151,0,23.916-10.703,23.994-23.857
		c0.038-6.41-2.423-12.451-6.929-17.012S6.617-27.014,0.21-27.051z"/>
</symbol>
<symbol  id="Announcement" viewBox="-32 -29.615 64 59.228">
	<path d="M29.52,16.227c-0.393,0-0.813-0.08-1.253-0.25l-9.373-3.602c-0.689,0.572-1.449,1.029-2.248,1.318l-43.005,15.584
		c-0.631,0.229-1.238,0.336-1.807,0.336c-2.224,0-3.834-1.664-3.834-4.293V-17.07c0-2.6,1.567-4.232,3.741-4.232
		c0.584,0,1.213,0.119,1.866,0.367L1.039-10.49c0.236-0.674,0.584-1.467,1.106-2.291c1.265-2.066,3.943-4.266,7.995-4.266
		c0.039,0,0.077,0,0.115,0c0.109,0.002,0.222,0.012,0.332,0.016c0.047-0.152,0.094-0.297,0.14-0.43l6.098-11.357
		c0.601-0.922,1.753-1.064,2.561-0.316l7.296,6.756c0.808,0.748,0.972,2.111,0.366,3.029l-2.798,5.377
		c-0.367,1.037-0.812,2.773-0.986,3.859l-0.655,4.631c-0.031,0.828-0.051,2.109-0.053,2.811l5.711-2.195
		c0.438-0.168,0.86-0.248,1.253-0.248c1.442,0,2.48,1.082,2.48,2.812v15.715C32,15.143,30.962,16.227,29.52,16.227z M-26,22.764
		L14.602,8.051c0.195-0.07,0.407-0.225,0.613-0.424c-0.035-0.23-0.063-0.463-0.063-0.691V4.174c0-0.699,0.186-1.422,0.484-2.111
		c-0.333-0.461-0.738-0.855-1.092-0.99L-26-14.365V22.764z M5.514-10.625c-0.345,0.539-0.579,1.098-0.732,1.561l4.147,1.578
		l0.75-5.521C7.36-12.82,6.312-11.785,5.514-10.625z"/>
</symbol>
<symbol  id="Clock" viewBox="-32 -32 64 64">
	<path d="M0,32c-17.673,0-32-14.327-32-32s14.327-32,32-32S32-17.673,32,0S17.673,32,0,32z M0-25c-13.785,0-25,11.215-25,25
		s11.215,25,25,25S25,13.785,25,0S13.785-25,0-25z"/>
	<path d="M15.456,0.759H1.485v16.398c0,1.381-1.121,2.5-2.502,2.5c-1.38,0-2.499-1.119-2.499-2.5V-3.891
		c0-1.381,1.119-2.502,2.499-2.502c0.318,0,0.62,0.066,0.899,0.175C-0.04-6.223,0.032-6.241,0.11-6.241h15.346
		c1.933,0,3.499,1.566,3.499,3.501C18.955-0.808,17.389,0.759,15.456,0.759z"/>
</symbol>
<circle id="Oval" opacity="0.06" fill="none" stroke="#000000" stroke-width="1.5" cx="-5.3" cy="202.581" r="5.435"/>
<path id="Line" opacity="0.06" fill="none" stroke="#000000" stroke-width="2" stroke-linecap="square" d="M112.795,70.167
	l9.511,5.435"/>
<path id="Line_1_" opacity="0.06" fill="none" stroke="#000000" stroke-width="2" stroke-linecap="square" d="M-2.583,104.527
	l-5.15,14.1"/>
<polyline id="Line_2_" opacity="0.06" fill="none" stroke="#000000" stroke-width="1.5" stroke-linecap="square" points="
	23.964,154.571 28.216,156.157 25.721,160.441 30.097,162.167 27.263,166.314 "/>
<path id="Line_4_" opacity="0.06" fill="none" stroke="#000000" stroke-width="2" stroke-linecap="square" d="M-18.887,46.102
	c0,0,2.334,2.442,2.606,5.638c0.271,3.194-0.959,5.636-0.959,5.636"/>
<circle id="Oval-2" opacity="0.06" cx="54.5" cy="65.462" r="2.038"/>
<circle id="Oval-2_1_" opacity="0.06" cx="197.147" cy="118.794" r="2.038"/>
<circle id="Oval-2_2_" opacity="0.06" cx="88.451" cy="157.517" r="2.039"/>
<circle id="Oval-2_3_" opacity="0.06" cx="2.853" cy="4.662" r="2.038"/>
<rect id="Rectangle-4_3_" x="214.812" y="-19.115" opacity="0.06" width="4.073" height="4.076"/>
<g id="Rectangle_1_" opacity="0.06">
	<polygon id="path-5_1_" fill="none" stroke="#000000" stroke-width="2" points="192.019,206.859 198.68,201.781 206.065,206.666 
		203.365,215.127 194.41,215.064 	"/>
</g>
<g id="Rectangle-2_1_" opacity="0.06">
	<polygon id="path-9_1_" fill="none" stroke="#000000" stroke-width="2" points="40.382,-16.138 52.801,-11.591 43.741,-5.261 	"/>
</g>
<use xlink:href="#Clock"  width="64" height="64" x="-32" y="-32" transform="matrix(0.2689 0 0 -0.2689 192.3926 40.668)" overflow="visible" opacity="0.06"/>
<use xlink:href="#Alarm"  width="63.857" height="64.106" x="-31.929" y="-32.053" transform="matrix(0.2941 3.000000e-04 3.000000e-04 -0.2941 141.3906 161.7314)" overflow="visible" opacity="0.06"/>
<use xlink:href="#Announcement"  width="64" height="59.228" x="-32" y="-29.615" transform="matrix(0.2025 0.1271 0.1271 -0.2025 136.3408 -3.0488)" overflow="visible" opacity="0.06"/>
</svg>
